# xmcd CD database file
#
# Track frame offsets:
#	150
#	16534
#	20638
#	45509
#	60776
#	66054
#	113985
#	125218
#	157350
#	164720
#	192918
#	198521
#	247004
#	254153
#	276789
#	288195
#
# Disc length: 3965 seconds
#
# Revision: 0
# Processed by: cddbd v1.5.2PL0 Copyright (c) Steve Scherf et al.
# Submitted via: CDex 1.70beta2
#
DISCID=f00f7b10
DTITLE=Richard Galliano - Gallianissimo - The Best Of !
DYEAR=1900
DGENRE=Jazz
TTITLE0=01-New York Tango
TTITLE1=02-Laurita
TTITLE2=03-Waltz For Nicky
TTITLE3=04-Invierno Porteño
TTITLE4=05-J.F.
TTITLE5=06-Caruso
TTITLE6=07-Fou Rire
TTITLE7=08-La Valse à Margaux
TTITLE8=09-Giselle
TTITLE9=10-Viaggio
TTITLE10=11-Spleen
TTITLE11=12-Tango pour Claude
TTITLE12=13-La Javanaise
TTITLE13=14-Leo, Estante Num Instante
TTITLE14=15-Oblivion
TTITLE15=16-No Name
EXTD=
EXTT0=
EXTT1=
EXTT2=
EXTT3=
EXTT4=
EXTT5=
EXTT6=
EXTT7=
EXTT8=
EXTT9=
EXTT10=
EXTT11=
EXTT12=
EXTT13=
EXTT14=
EXTT15=
PLAYORDER=
